 <svg
    xmlns="http://www.w3.org/2000/svg"
    viewBox="0 0 120 120"
    width="60"
    height="60"
  >
    <defs>
      <linearGradient id="chefBlue" x1="0%" y1="0%" x2="100%" y2="100%">
        <stop offset="0%" stop-color="#3B82F6" />
        <stop offset="100%" stop-color="#2563EB" />
      </linearGradient>
    </defs>

    <!-- Chef hat -->
    <path
      d="M60 18c-9 0-16 6-16 13 0 2 0 4 1 5h-5c-3 0-5 2-5 5v3h50v-3c0-3-2-5-5-5h-5c1-1 1-3 1-5 0-7-7-13-16-13z"
      fill="url(#chefBlue)"
    />

    <!-- Robot head -->
    <rect x="30" y="44" width="60" height="40" rx="10" ry="10" fill="#1E293B" stroke="url(#chefBlue)" stroke-width="3"/>

    <!-- Eyes -->
    <circle cx="47" cy="64" r="6" fill="url(#chefBlue)" />
    <circle cx="73" cy="64" r="6" fill="url(#chefBlue)" />

    <!-- Mouth -->
    <rect x="50" y="75" width="20" height="4" rx="2" fill="#3B82F6" />

    <!-- Antenna -->
    <line x1="60" y1="18" x2="60" y2="10" stroke="url(#chefBlue)" stroke-width="3" />
    <circle cx="60" cy="8" r="3" fill="#3B82F6" />
  </svg>